<svg width="50" height="50" viewBox="0 0 50 50" fill="none" xmlns="http://www.w3.org/2000/svg">
<path d="M25 46.875C12.9375 46.875 3.125 37.0625 3.125 25C3.125 12.9375 12.9375 3.125 25 3.125C37.0625 3.125 46.875 12.9375 46.875 25C46.875 37.0625 37.0625 46.875 25 46.875ZM25 6.25C14.6562 6.25 6.25 14.6562 6.25 25C6.25 35.3438 14.6562 43.75 25 43.75C35.3438 43.75 43.75 35.3438 43.75 25C43.75 14.6562 35.3438 6.25 25 6.25Z" fill="#6A7282"/>
<path d="M25 35.9375C24.125 35.9375 23.4375 35.25 23.4375 34.375V15.625C23.4375 14.75 24.125 14.0625 25 14.0625C25.875 14.0625 26.5625 14.75 26.5625 15.625V34.375C26.5625 35.25 25.875 35.9375 25 35.9375Z" fill="#6A7282"/>
<path d="M34.375 26.5625H15.625C14.75 26.5625 14.0625 25.875 14.0625 25C14.0625 24.125 14.75 23.4375 15.625 23.4375H34.375C35.25 23.4375 35.9375 24.125 35.9375 25C35.9375 25.875 35.25 26.5625 34.375 26.5625Z" fill="#6A7282"/>
</svg>
