<svg width="24" height="24" viewBox="0 0 24 24" fill="none" xmlns="http://www.w3.org/2000/svg">
<g clip-path="url(#clip0_2065_528)">
<path d="M14.707 5.63341L20.364 11.2904C20.5515 11.4779 20.6568 11.7322 20.6568 11.9974C20.6568 12.2626 20.5515 12.5169 20.364 12.7044L14.707 18.3614C14.5184 18.5436 14.2658 18.6444 14.0036 18.6421C13.7414 18.6398 13.4906 18.5346 13.3052 18.3492C13.1198 18.1638 13.0146 17.913 13.0123 17.6508C13.01 17.3886 13.1108 17.136 13.293 16.9474L17.243 12.9974H4C3.73478 12.9974 3.48043 12.8921 3.29289 12.7045C3.10536 12.517 3 12.2626 3 11.9974C3 11.7322 3.10536 11.4778 3.29289 11.2903C3.48043 11.1028 3.73478 10.9974 4 10.9974H17.243L13.293 7.04741C13.1975 6.95517 13.1213 6.84482 13.0689 6.72282C13.0165 6.60081 12.9889 6.46959 12.9877 6.33681C12.9866 6.20404 13.0119 6.07236 13.0622 5.94946C13.1125 5.82656 13.1867 5.71491 13.2806 5.62102C13.3745 5.52713 13.4861 5.45287 13.609 5.40259C13.7319 5.35231 13.8636 5.32701 13.9964 5.32816C14.1292 5.32932 14.2604 5.3569 14.3824 5.40931C14.5044 5.46172 14.6148 5.5379 14.707 5.63341Z" fill="white"/>
</g>
<defs>
<clipPath id="clip0_2065_528">
<rect width="24" height="24" fill="white"/>
</clipPath>
</defs>
</svg>
