<svg width="24" height="24" viewBox="0 0 24 24" fill="none" xmlns="http://www.w3.org/2000/svg">
<path d="M7.82484 12.9969L12.7248 17.8969C12.9248 18.0969 13.0208 18.3302 13.0128 18.5969C13.0048 18.8635 12.9005 19.0969 12.6998 19.2969C12.4998 19.4802 12.2665 19.5762 11.9998 19.5849C11.7332 19.5935 11.4998 19.4975 11.2998 19.2969L4.69984 12.6969C4.59984 12.5969 4.52884 12.4885 4.48684 12.3719C4.44484 12.2552 4.42451 12.1302 4.42584 11.9969C4.42718 11.8635 4.44818 11.7385 4.48884 11.6219C4.52951 11.5052 4.60018 11.3969 4.70084 11.2969L11.3008 4.69687C11.4842 4.51354 11.7135 4.42188 11.9888 4.42188C12.2642 4.42188 12.5015 4.51354 12.7008 4.69687C12.9008 4.89687 13.0008 5.13454 13.0008 5.40987C13.0008 5.68521 12.9008 5.92254 12.7008 6.12187L7.82484 10.9969H18.9998C19.2832 10.9969 19.5208 11.0929 19.7128 11.2849C19.9048 11.4769 20.0005 11.7142 19.9998 11.9969C19.9992 12.2795 19.9032 12.5172 19.7118 12.7099C19.5205 12.9025 19.2832 12.9982 18.9998 12.9969H7.82484Z" fill="black"/>
</svg>
