<svg width="48" height="48" viewBox="0 0 48 48" fill="none" xmlns="http://www.w3.org/2000/svg">
<g clip-path="url(#clip0_2007_2664)">
<path d="M24.0008 37.3493C31.3761 37.3493 37.3547 31.3702 37.3547 23.9949C37.3547 16.6196 31.3761 10.6406 24.0008 10.6406C16.6255 10.6406 10.6465 16.6196 10.6465 23.9949C10.6465 31.3702 16.6253 37.3493 24.0006 37.3493" fill="white"/>
<path d="M6.72908 17.4332C5.73283 15.7076 4.56183 13.8965 3.21608 12C1.10927 15.6483 7.15644e-05 19.7869 3.46283e-09 23.9998C-7.15575e-05 28.2127 1.10899 32.3513 3.21567 35.9997C5.32236 39.648 8.35241 42.6774 12.0012 44.7833C15.65 46.8892 19.7889 47.9974 24.0018 47.9964C26.2106 44.8983 27.7104 42.6646 28.501 41.2952C30.0195 38.6649 31.9835 34.8993 34.3928 29.9981V29.9953C33.3402 31.8203 31.8257 33.336 30.0015 34.3899C28.1772 35.4438 26.1077 35.9988 24.0009 35.9992C21.8941 35.9995 19.8244 35.4451 17.9999 34.3917C16.1753 33.3384 14.6603 31.8232 13.6071 29.9985C10.3349 23.8957 8.0422 19.7072 6.72908 17.4332Z" fill="#229342"/>
<path d="M24.0014 47.9996C27.1532 48.0001 30.2742 47.3797 33.1862 46.1738C36.0981 44.9678 38.744 43.2 40.9726 40.9713C43.2011 38.7426 44.9688 36.0967 46.1746 33.1846C47.3804 30.2726 48.0006 27.1515 47.9999 23.9998C47.999 19.7868 46.8891 15.6483 44.7818 12.0003C40.2353 11.5522 36.8799 11.3281 34.7157 11.3281C32.2617 11.3281 28.6897 11.5522 23.9997 12.0003L23.9971 12.0022C26.1039 12.0011 28.1738 12.5549 29.9987 13.6077C31.8236 14.6605 33.3391 16.1753 34.3928 17.9998C35.4465 19.8242 36.0013 21.8939 36.0013 24.0007C36.0012 26.1076 35.4464 28.1772 34.3926 30.0016L24.0014 47.9996Z" fill="#FBC116"/>
<path d="M24.0006 33.5013C29.2476 33.5013 33.5011 29.2478 33.5011 24.0006C33.5011 18.7534 29.2476 14.5 24.0004 14.5C18.7536 14.5 14.5 18.7536 14.5 24.0006C14.5 29.2476 18.7536 33.5013 24.0006 33.5013Z" fill="#1A73E8"/>
<path d="M24.0008 12.0008H44.7827C42.6769 8.35198 39.6474 5.3219 35.999 3.21527C32.3506 1.10864 28.2119 -0.000285006 23.999 5.49447e-08C19.786 0.000285116 15.6474 1.10977 11.9993 3.2169C8.35121 5.32402 5.32218 8.35451 3.2168 12.0036L13.6079 30.0018L13.6107 30.0033C12.5565 28.1792 12.0011 26.1097 12.0005 24.0028C11.9999 21.896 12.554 19.8262 13.6071 18.0015C14.6603 16.1768 16.1753 14.6615 17.9999 13.6081C19.8244 12.5547 21.8942 12.0003 24.001 12.0006L24.0008 12.0008Z" fill="#E33B2E"/>
</g>
<defs>
<clipPath id="clip0_2007_2664">
<rect width="48" height="48" fill="white"/>
</clipPath>
</defs>
</svg>
