<svg width="40" height="40" viewBox="0 0 40 40" fill="none" xmlns="http://www.w3.org/2000/svg">
<path d="M13.3332 21.6693H26.6665V18.3359H13.3332V21.6693ZM13.3332 26.6693H26.6665V23.3359H13.3332V26.6693ZM13.3332 31.6693H21.6665V28.3359H13.3332V31.6693ZM9.99984 36.6693C9.08317 36.6693 8.29873 36.3432 7.6465 35.6909C6.99428 35.0387 6.66762 34.2537 6.6665 33.3359V6.66927C6.6665 5.7526 6.99317 4.96816 7.6465 4.31594C8.29984 3.66372 9.08428 3.33705 9.99984 3.33594H23.3332L33.3332 13.3359V33.3359C33.3332 34.2526 33.0071 35.0376 32.3548 35.6909C31.7026 36.3443 30.9176 36.6704 29.9998 36.6693H9.99984ZM21.6665 15.0026H29.9998L21.6665 6.66927V15.0026Z" fill="#5D1BB3"/>
</svg>
