<svg width="28" height="28" viewBox="0 0 28 28" fill="none" xmlns="http://www.w3.org/2000/svg">
<path fill-rule="evenodd" clip-rule="evenodd" d="M4.86683 3.70277C3.5 5.06961 3.5 7.26949 3.5 11.6693V16.3359C3.5 20.7357 3.5 22.9357 4.86683 24.3024C6.23367 25.6693 8.43355 25.6693 12.8333 25.6693H15.1667C19.5664 25.6693 21.7664 25.6693 23.1331 24.3024C24.5 22.9357 24.5 20.7357 24.5 16.3359V11.6693C24.5 7.26949 24.5 5.06961 23.1331 3.70277C21.7664 2.33594 19.5664 2.33594 15.1667 2.33594H12.8333C8.43355 2.33594 6.23367 2.33594 4.86683 3.70277ZM8.45833 9.33594C8.45833 8.85269 8.85009 8.46094 9.33333 8.46094H18.6667C19.1499 8.46094 19.5417 8.85269 19.5417 9.33594C19.5417 9.81918 19.1499 10.2109 18.6667 10.2109H9.33333C8.85009 10.2109 8.45833 9.81918 8.45833 9.33594ZM8.45833 14.0026C8.45833 13.5194 8.85009 13.1276 9.33333 13.1276H18.6667C19.1499 13.1276 19.5417 13.5194 19.5417 14.0026C19.5417 14.4858 19.1499 14.8776 18.6667 14.8776H9.33333C8.85009 14.8776 8.45833 14.4858 8.45833 14.0026ZM9.33333 17.7943C8.85009 17.7943 8.45833 18.186 8.45833 18.6693C8.45833 19.1525 8.85009 19.5443 9.33333 19.5443H15.1667C15.6499 19.5443 16.0417 19.1525 16.0417 18.6693C16.0417 18.186 15.6499 17.7943 15.1667 17.7943H9.33333Z" fill="#5D1BB3"/>
</svg>
