<svg width="40" height="40" viewBox="0 0 40 40" fill="none" xmlns="http://www.w3.org/2000/svg">
<path d="M19.9997 36.6615C10.7947 36.6615 3.33301 29.1998 3.33301 19.9948C3.33301 10.7898 10.7947 3.32812 19.9997 3.32812C29.2047 3.32812 36.6663 10.7898 36.6663 19.9948C36.6663 29.1998 29.2047 36.6615 19.9997 36.6615ZM13.1997 15.3848V15.5548C13.1997 15.7758 13.2875 15.9878 13.4438 16.144C13.6 16.3003 13.812 16.3881 14.033 16.3881H15.6947C15.8039 16.3881 15.912 16.3666 16.0129 16.3248C16.1138 16.283 16.2055 16.2218 16.2828 16.1445C16.36 16.0673 16.4212 15.9756 16.463 15.8747C16.5048 15.7738 16.5263 15.6657 16.5263 15.5565C16.5263 13.4065 18.1897 12.2581 20.4263 12.2581C22.6063 12.2581 24.0397 13.4065 24.0397 15.0415C24.0397 16.5881 23.2363 17.3065 21.2297 18.2248L20.6563 18.4815C18.9647 19.2281 18.333 20.3448 18.333 22.2965V22.4948C18.333 22.7158 18.4208 22.9278 18.5771 23.084C18.7334 23.2403 18.9453 23.3281 19.1663 23.3281H20.828C20.9372 23.3281 21.0454 23.3066 21.1463 23.2648C21.2472 23.223 21.3389 23.1618 21.4161 23.0845C21.4933 23.0073 21.5546 22.9156 21.5964 22.8147C21.6382 22.7138 21.6597 22.6057 21.6597 22.4965C21.6597 21.6365 21.8897 21.2915 22.5763 20.9765L23.1513 20.7181C25.5597 19.6281 27.3663 18.1948 27.3663 15.0681V14.8965C27.3663 11.5998 24.4997 9.16146 20.4263 9.16146C16.2963 9.16146 13.1997 11.5415 13.1997 15.3848ZM17.4997 28.3131C17.4997 29.7581 18.598 30.8281 19.9847 30.8281C21.4013 30.8281 22.4997 29.7581 22.4997 28.3131C22.4997 26.8681 21.4013 25.8281 19.9847 25.8281C18.598 25.8281 17.4997 26.8681 17.4997 28.3131Z" fill="#5D1BB3"/>
</svg>
