<svg width="40" height="40" viewBox="0 0 40 40" fill="none" xmlns="http://www.w3.org/2000/svg">
<path d="M28.3333 18.5C33.3959 18.5 37.5 22.6041 37.5 27.6667C37.5 32.7293 33.3959 36.8333 28.3333 36.8333C23.2707 36.8333 19.1667 32.7293 19.1667 27.6667C19.1667 22.6041 23.2707 18.5 28.3333 18.5ZM28.3333 21.8321L28.1835 21.8455C27.8434 21.9072 27.5752 22.1754 27.5134 22.5156L27.5 22.6654L27.4994 26.8321L23.3294 26.8333L23.1796 26.8468C22.8395 26.9085 22.5712 27.1767 22.5095 27.5169L22.4961 27.6667L22.5095 27.8165C22.5712 28.1566 22.8395 28.4248 23.1796 28.4866L23.3294 28.5L27.5011 28.4987L27.5018 32.6725L27.5153 32.8223C27.577 33.1624 27.8452 33.4306 28.1854 33.4924L28.3352 33.5058L28.485 33.4924C28.8251 33.4306 29.0933 33.1624 29.1551 32.8223L29.1685 32.6725L29.1678 28.4987L33.3409 28.5L33.4907 28.4866C33.8309 28.4248 34.0991 28.1566 34.1608 27.8165L34.1743 27.6667L34.1608 27.5169C34.0991 27.1767 33.8309 26.9085 33.4907 26.8468L33.3409 26.8333L29.1661 26.8321L29.1667 22.6654L29.1532 22.5156C29.0915 22.1754 28.8233 21.9072 28.4831 21.8455L28.3333 21.8321ZM22.9234 15.1667C24.3143 15.1667 25.5283 15.9239 26.1757 17.0486C21.2255 18.0494 17.5 22.423 17.5 27.6667C17.5 29.8153 18.1255 31.8178 19.2043 33.502L19.1716 33.5C15.0285 33.5 11.6699 30.1414 11.6699 25.9983V18.9167C11.6699 16.8456 13.3488 15.1667 15.4199 15.1667H22.9234ZM11.5108 15.1671C10.6548 16.0592 10.1013 17.2437 10.015 18.5558L10.0032 18.9167V25.9983C10.0032 27.4093 10.322 28.7459 10.8914 29.94C10.343 30.0884 9.76498 30.1667 9.16873 30.1667C5.48569 30.1667 2.5 27.181 2.5 23.4979V18.9167C2.5 16.9319 4.04194 15.3073 5.99325 15.1753L6.25 15.1667L11.5108 15.1671ZM32.0833 15.1667C34.1544 15.1667 35.8333 16.8456 35.8333 18.9167L35.8347 19.8506C33.8881 17.9819 31.2448 16.8333 28.3333 16.8333L27.928 16.8408C27.6688 16.2161 27.2948 15.6489 26.8325 15.1671L32.0833 15.1667ZM30 5.16667C32.3012 5.16667 34.1667 7.03215 34.1667 9.33333C34.1667 11.6345 32.3012 13.5 30 13.5C27.6988 13.5 25.8333 11.6345 25.8333 9.33333C25.8333 7.03215 27.6988 5.16667 30 5.16667ZM19.1667 3.5C21.9281 3.5 24.1667 5.73858 24.1667 8.5C24.1667 11.2614 21.9281 13.5 19.1667 13.5C16.4052 13.5 14.1667 11.2614 14.1667 8.5C14.1667 5.73858 16.4052 3.5 19.1667 3.5ZM8.33333 5.16667C10.6345 5.16667 12.5 7.03215 12.5 9.33333C12.5 11.6345 10.6345 13.5 8.33333 13.5C6.03215 13.5 4.16667 11.6345 4.16667 9.33333C4.16667 7.03215 6.03215 5.16667 8.33333 5.16667Z" fill="white"/>
</svg>
