<svg width="24" height="24" viewBox="0 0 24 24" fill="none" xmlns="http://www.w3.org/2000/svg">
<path d="M7.12506 3.75H16.8751C17.6881 3.75 18.3431 3.75 18.8751 3.793C19.4211 3.838 19.9011 3.933 20.3451 4.159C21.0511 4.51837 21.6253 5.09214 21.9851 5.798C22.2111 6.242 22.3051 6.722 22.3501 7.268C22.3567 7.348 22.3621 7.43033 22.3661 7.515C22.3961 7.6245 22.4009 7.73938 22.3801 7.851C22.3931 8.261 22.3931 8.73 22.3931 9.268V14.732C22.3931 15.545 22.3931 16.201 22.3501 16.732C22.3051 17.278 22.2101 17.758 21.9841 18.202C21.6247 18.9081 21.0509 19.4822 20.3451 19.842C19.9011 20.068 19.4211 20.162 18.8751 20.207C18.3431 20.25 17.6881 20.25 16.8751 20.25H7.12506C6.31206 20.25 5.65706 20.25 5.12506 20.207C4.57906 20.162 4.09906 20.067 3.65506 19.841C2.94935 19.4815 2.3756 18.9077 2.01606 18.202C1.79006 17.758 1.69606 17.278 1.65106 16.732C1.60706 16.201 1.60706 15.545 1.60706 14.732V9.268C1.60706 8.73 1.60706 8.261 1.62006 7.851C1.59923 7.73938 1.60402 7.6245 1.63406 7.515C1.63872 7.42967 1.64439 7.34767 1.65106 7.269C1.69506 6.722 1.79006 6.242 2.01606 5.798C2.37543 5.09192 2.9492 4.5178 3.65506 4.158C4.09906 3.932 4.57906 3.838 5.12506 3.793C5.65706 3.75 6.31206 3.75 7.12506 3.75ZM20.8501 7.341C20.8121 6.918 20.7451 6.669 20.6481 6.479C20.4325 6.05541 20.0884 5.71095 19.6651 5.495C19.4671 5.395 19.2061 5.325 18.7521 5.288C18.2901 5.251 17.6951 5.25 16.8431 5.25H7.15706C6.30506 5.25 5.71106 5.25 5.24706 5.288C4.79406 5.325 4.53306 5.395 4.33606 5.495C3.91232 5.71078 3.56784 6.05526 3.35206 6.479C3.25606 6.669 3.18806 6.918 3.15006 7.341L9.75406 11.744C10.7641 12.418 11.1171 12.639 11.4761 12.725C11.8205 12.8075 12.1796 12.8075 12.5241 12.725C12.8841 12.639 13.2351 12.418 14.2471 11.744L20.8501 7.341Z" fill="#5D1BB3"/>
</svg>
