<svg width="40" height="40" viewBox="0 0 40 40" fill="none" xmlns="http://www.w3.org/2000/svg">
<g clip-path="url(#clip0_2078_247)">
<path d="M7.8275 7H32.1278C32.8777 7 33.5968 7.2979 34.1271 7.82816C34.6574 8.35841 34.9553 9.0776 34.9553 9.8275C34.9553 10.5774 34.6574 11.2966 34.1271 11.8268C33.5968 12.3571 32.8777 12.655 32.1278 12.655H7.8275C7.0776 12.655 6.35841 12.3571 5.82816 11.8268C5.2979 11.2966 5 10.5774 5 9.8275C5 9.0776 5.2979 8.35841 5.82816 7.82816C6.35841 7.2979 7.0776 7 7.8275 7ZM7.8275 17.1725H32.1278C32.4991 17.1725 32.8667 17.2456 33.2098 17.3877C33.5528 17.5298 33.8645 17.7381 34.1271 18.0007C34.3897 18.2632 34.5979 18.5749 34.74 18.918C34.8821 19.261 34.9553 19.6287 34.9553 20C34.9553 20.3713 34.8821 20.739 34.74 21.082C34.5979 21.4251 34.3897 21.7368 34.1271 21.9993C33.8645 22.2619 33.5528 22.4702 33.2098 22.6123C32.8667 22.7544 32.4991 22.8275 32.1278 22.8275H7.8275C7.45619 22.8275 7.08851 22.7544 6.74546 22.6123C6.40241 22.4702 6.09071 22.2619 5.82816 21.9993C5.5656 21.7368 5.35733 21.4251 5.21523 21.082C5.07314 20.739 5 20.3713 5 20C5 19.6287 5.07314 19.261 5.21523 18.918C5.35733 18.5749 5.5656 18.2632 5.82816 18.0007C6.09071 17.7381 6.40241 17.5298 6.74546 17.3877C7.08851 17.2456 7.45619 17.1725 7.8275 17.1725ZM7.8275 27.3461H32.1278C32.4991 27.3461 32.8667 27.4192 33.2098 27.5613C33.5528 27.7034 33.8645 27.9117 34.1271 28.1742C34.3897 28.4368 34.5979 28.7485 34.74 29.0915C34.8821 29.4346 34.9553 29.8023 34.9553 30.1736C34.9553 30.5449 34.8821 30.9126 34.74 31.2556C34.5979 31.5987 34.3897 31.9104 34.1271 32.1729C33.8645 32.4355 33.5528 32.6438 33.2098 32.7859C32.8667 32.9279 32.4991 33.0011 32.1278 33.0011H7.8275C7.45619 33.0011 7.08851 32.9279 6.74546 32.7859C6.40241 32.6438 6.09071 32.4355 5.82816 32.1729C5.5656 31.9104 5.35733 31.5987 5.21523 31.2556C5.07314 30.9126 5 30.5449 5 30.1736C5 29.8023 5.07314 29.4346 5.21523 29.0915C5.35733 28.7485 5.5656 28.4368 5.82816 28.1742C6.09071 27.9117 6.40241 27.7034 6.74546 27.5613C7.08851 27.4192 7.45619 27.3461 7.8275 27.3461Z" fill="#5D1BB3"/>
</g>
<defs>
<clipPath id="clip0_2078_247">
<rect width="30.3333" height="26" fill="white" transform="translate(5 7)"/>
</clipPath>
</defs>
</svg>
