<svg width="100" height="100" viewBox="0 0 100 100" fill="none" xmlns="http://www.w3.org/2000/svg">
<path d="M59.8467 12.1094L19.2842 23.7688C20.0157 24.8377 20.6956 25.9411 21.3217 27.075C34.6998 22.9573 48.079 18.8411 61.4592 14.7266C60.9654 13.8328 60.4279 12.9604 59.8467 12.1094ZM63.7514 19.7219L24.2217 33.3938C24.6779 34.6021 25.0977 35.8276 25.4811 37.0703C38.5706 32.2557 51.6592 27.4427 64.7467 22.6313C64.4439 21.6518 64.112 20.6816 63.7514 19.7219ZM27.2811 43.9047C27.5764 45.1875 27.8451 46.4828 28.1045 47.7828L66.7795 31.1219C66.5744 30.0965 66.3577 29.0736 66.1295 28.0531L27.2811 43.9047Z" fill="black" fill-opacity="0.2"/>
<path d="M95.6688 51.8047C92.1438 47.9422 90.1391 43.3687 88.7641 38.4953C84.5036 40.9047 80.4688 43.1885 76.6594 45.3469C72.4875 30.5562 73.6266 13.2625 59.5641 3.125L3.125 16.0203C26.9875 33.2156 20.5375 77.7516 37.5641 94.4766C38.9875 95.875 44.3203 98.5203 51.7328 95.4578C63.2203 90.7109 59.0094 85.3266 94.2094 59.6656C97.3141 57.4 97.5781 53.9312 95.6688 51.8047ZM38.5953 66.8906C40.5234 73.7266 53.5188 77.4297 51.275 87.6078C49.9125 93.7969 42.2594 95.0484 39.6172 92.3953C32.6641 85.4172 29.7875 72.8609 26.8187 59.4875C23.3828 44.0125 19.8453 28.0719 9.42969 17.575L58.8828 6.27813C67.4531 13.1078 69.2953 23.2844 71.2406 34.0359C72.0078 38.2781 72.825 42.625 74.0594 46.8203L38.5953 66.8906Z" fill="black" fill-opacity="0.2"/>
</svg>
