<svg width="28" height="28" viewBox="0 0 28 28" fill="none" xmlns="http://www.w3.org/2000/svg">
<g clip-path="url(#clip0_2031_2737)">
<path d="M13.9999 12.8359C15.547 12.8359 17.0307 13.4505 18.1247 14.5445C19.2187 15.6384 19.8333 17.1222 19.8333 18.6693V25.6693H8.16659V18.6693C8.16659 17.1222 8.78117 15.6384 9.87513 14.5445C10.9691 13.4505 12.4528 12.8359 13.9999 12.8359ZM6.16925 16.3429C5.98359 16.9692 5.87391 17.6155 5.84259 18.2679L5.83325 18.6693V25.6693H2.33325V20.4193C2.33302 19.4131 2.70428 18.4423 3.37583 17.693C4.04737 16.9437 4.9719 16.4688 5.97209 16.3593L6.16925 16.3429ZM21.8306 16.3429C22.8688 16.4062 23.8438 16.8632 24.5566 17.6207C25.2694 18.3782 25.6664 19.3791 25.6666 20.4193V25.6693H22.1666V18.6693C22.1666 17.8608 22.0499 17.0803 21.8306 16.3429ZM6.41659 9.33594C7.19013 9.33594 7.932 9.64323 8.47898 10.1902C9.02596 10.7372 9.33325 11.4791 9.33325 12.2526C9.33325 13.0262 9.02596 13.768 8.47898 14.315C7.932 14.862 7.19013 15.1693 6.41659 15.1693C5.64304 15.1693 4.90117 14.862 4.35419 14.315C3.80721 13.768 3.49992 13.0262 3.49992 12.2526C3.49992 11.4791 3.80721 10.7372 4.35419 10.1902C4.90117 9.64323 5.64304 9.33594 6.41659 9.33594ZM21.5833 9.33594C22.3568 9.33594 23.0987 9.64323 23.6456 10.1902C24.1926 10.7372 24.4999 11.4791 24.4999 12.2526C24.4999 13.0262 24.1926 13.768 23.6456 14.315C23.0987 14.862 22.3568 15.1693 21.5833 15.1693C20.8097 15.1693 20.0678 14.862 19.5209 14.315C18.9739 13.768 18.6666 13.0262 18.6666 12.2526C18.6666 11.4791 18.9739 10.7372 19.5209 10.1902C20.0678 9.64323 20.8097 9.33594 21.5833 9.33594ZM13.9999 2.33594C15.2376 2.33594 16.4246 2.8276 17.2997 3.70277C18.1749 4.57794 18.6666 5.76493 18.6666 7.0026C18.6666 8.24028 18.1749 9.42727 17.2997 10.3024C16.4246 11.1776 15.2376 11.6693 13.9999 11.6693C12.7622 11.6693 11.5753 11.1776 10.7001 10.3024C9.82492 9.42727 9.33325 8.24028 9.33325 7.0026C9.33325 5.76493 9.82492 4.57794 10.7001 3.70277C11.5753 2.8276 12.7622 2.33594 13.9999 2.33594Z" fill="#5D1BB3"/>
</g>
<defs>
<clipPath id="clip0_2031_2737">
<rect width="28" height="28" fill="white"/>
</clipPath>
</defs>
</svg>
