<svg width="40" height="40" viewBox="0 0 40 40" fill="none" xmlns="http://www.w3.org/2000/svg">
<path d="M14.325 21.3559C14.1131 20.4667 14.1131 19.5401 14.325 18.6509L12.6717 17.6959L14.3383 14.8093L15.9917 15.7643C16.6554 15.1359 17.4575 14.6724 18.3333 14.4109V12.5026H21.6667V14.4109C22.5533 14.6743 23.3533 15.1443 24.0083 15.7643L25.6617 14.8093L27.3283 17.6959L25.675 18.6493C25.8869 19.5385 25.8869 20.4651 25.675 21.3543L27.3283 22.3093L25.6617 25.1959L24.0083 24.2409C23.3446 24.8693 22.5425 25.3328 21.6667 25.5943V27.5026H18.3333V25.5943C17.4575 25.3328 16.6554 24.8693 15.9917 24.2409L14.3383 25.1959L12.6717 22.3093L14.325 21.3559ZM20 22.5026C20.663 22.5026 21.2989 22.2392 21.7678 21.7704C22.2366 21.3015 22.5 20.6656 22.5 20.0026C22.5 19.3396 22.2366 18.7037 21.7678 18.2348C21.2989 17.766 20.663 17.5026 20 17.5026C19.337 17.5026 18.7011 17.766 18.2322 18.2348C17.7634 18.7037 17.5 19.3396 17.5 20.0026C17.5 20.6656 17.7634 21.3015 18.2322 21.7704C18.7011 22.2392 19.337 22.5026 20 22.5026ZM25 6.66927H8.33333V33.3359H31.6667V13.3359H25V6.66927ZM5 4.98927C5 4.07594 5.745 3.33594 6.665 3.33594H26.6667L35 11.6693V34.9909C35.0015 35.2098 34.96 35.4268 34.8776 35.6296C34.7953 35.8324 34.6738 36.017 34.5201 36.1729C34.3664 36.3287 34.1836 36.4528 33.9819 36.5379C33.7803 36.6231 33.5639 36.6677 33.345 36.6693H6.655C6.2173 36.6662 5.79836 36.4911 5.4887 36.1817C5.17903 35.8724 5.00349 35.4536 5 35.0159V4.98927Z" fill="#5D1BB3"/>
</svg>
