<svg width="254" height="44" viewBox="0 0 254 44" fill="none" xmlns="http://www.w3.org/2000/svg">
<path d="M34.0576 26.1037L32.0784 24.0137C32.3304 22.4904 32.2982 20.9336 31.9834 19.422L33.9151 17.332C34.065 17.1649 34.1652 16.9593 34.2044 16.7382C34.2436 16.5172 34.2201 16.2896 34.1367 16.0812C33.3341 14.1021 32.1506 12.2999 30.6534 10.777C30.5069 10.6306 30.3242 10.5256 30.124 10.4727C29.9237 10.4199 29.713 10.4211 29.5134 10.4762L26.6001 11.2203C25.7029 10.5756 24.7297 10.0438 23.7026 9.63699L22.9901 6.91366C22.9371 6.69278 22.8203 6.49238 22.6542 6.33751C22.488 6.18263 22.2799 6.08014 22.0559 6.04283C21.0692 5.85845 20.0672 5.76832 19.0634 5.77366C17.8074 5.77961 16.5571 5.94453 15.3426 6.26449C15.1399 6.31544 14.9548 6.42039 14.807 6.56815C14.6593 6.71592 14.5543 6.90099 14.5034 7.10366L13.7434 9.90616C12.8936 10.2831 12.0867 10.7502 11.3367 11.2995L8.45505 10.587C8.25273 10.5341 8.03984 10.5371 7.83909 10.5956C7.63833 10.6542 7.45722 10.7661 7.31505 10.9195C5.74086 12.5549 4.5367 14.5096 3.78422 16.6512C3.71125 16.8582 3.69627 17.0812 3.74093 17.2961C3.78558 17.511 3.88816 17.7095 4.03755 17.8703L6.03255 19.9445C5.93122 20.6105 5.87844 21.2808 5.87422 21.9553C5.87422 22.4303 5.87422 22.9053 5.95339 23.3803L3.87922 25.692C3.73963 25.8457 3.64279 26.0333 3.59834 26.2361C3.55388 26.4389 3.56338 26.6498 3.62589 26.8478C4.27654 28.9413 5.35486 30.8769 6.79255 32.532C6.93715 32.702 7.12673 32.8279 7.33957 32.8951C7.5524 32.9623 7.77987 32.9681 7.99589 32.912L10.7192 32.2153C11.6732 33.0167 12.7403 33.6729 13.8859 34.1628L14.6776 36.997C14.7385 37.2025 14.8526 37.3882 15.0083 37.5356C15.1639 37.6829 15.3557 37.7866 15.5642 37.8362C16.7058 38.0942 17.8743 38.2272 19.0476 38.232C19.9828 38.2214 20.9117 38.1317 21.8342 37.9628C22.0528 37.9242 22.2562 37.8252 22.4213 37.6768C22.5864 37.5285 22.7067 37.3369 22.7684 37.1237L23.5126 34.4478C24.8797 33.959 26.1539 33.2416 27.2809 32.3262L30.0676 32.9595C30.2765 33.0081 30.4948 32.9983 30.6987 32.9313C30.9025 32.8643 31.084 32.7426 31.2234 32.5795C32.6119 31.0388 33.6874 29.2426 34.3901 27.2912C34.4469 27.0816 34.446 26.8606 34.3875 26.6516C34.3289 26.4425 34.2149 26.2532 34.0576 26.1037ZM19.1901 28.1145C18.3899 28.1295 17.5947 27.9851 16.8509 27.6898C16.1071 27.3944 15.4295 26.954 14.8576 26.3942C14.2856 25.8344 13.8308 25.1664 13.5195 24.4291C13.2083 23.6918 13.0469 22.9 13.0446 22.0997C13.0424 21.2994 13.1995 20.5066 13.5067 19.7676C13.8139 19.0286 14.265 18.3581 14.8339 17.7952C15.4027 17.2323 16.0779 16.7881 16.8201 16.4887C17.5622 16.1893 18.3566 16.0405 19.1568 16.0511C20.7567 16.0469 22.2928 16.6784 23.4271 17.8068C24.5613 18.9351 25.2009 20.4678 25.2051 22.0677C25.2093 23.6677 24.5778 25.2037 23.4495 26.338C22.3211 27.4723 20.7884 28.1119 19.1885 28.1161" fill="#5D1BB3"/>
<path d="M49.2784 13.3821V8.81818H70.7812V13.3821H62.7656V35H57.294V13.3821H49.2784ZM80.3214 35.3835C78.3015 35.3835 76.5629 34.9744 75.1055 34.1562C73.6566 33.3295 72.5401 32.1619 71.756 30.6534C70.9719 29.1364 70.5799 27.3423 70.5799 25.2713C70.5799 23.2514 70.9719 21.4787 71.756 19.9531C72.5401 18.4276 73.6438 17.2386 75.0671 16.3864C76.4989 15.5341 78.1779 15.108 80.104 15.108C81.3995 15.108 82.6055 15.3168 83.7219 15.7344C84.8469 16.1435 85.8271 16.7614 86.6623 17.5881C87.506 18.4148 88.1623 19.4545 88.631 20.7074C89.0998 21.9517 89.3342 23.4091 89.3342 25.0795V26.5753H72.7532V23.2003H84.2077C84.2077 22.4162 84.0373 21.7216 83.6964 21.1165C83.3555 20.5114 82.8825 20.0384 82.2773 19.6974C81.6808 19.348 80.9862 19.1733 80.1935 19.1733C79.3668 19.1733 78.6339 19.3651 77.9947 19.7486C77.364 20.1236 76.8697 20.6307 76.5117 21.2699C76.1538 21.9006 75.9705 22.6037 75.962 23.3793V26.5881C75.962 27.5597 76.141 28.3991 76.4989 29.1065C76.8654 29.8139 77.381 30.3594 78.0458 30.7429C78.7106 31.1264 79.4989 31.3182 80.4109 31.3182C81.016 31.3182 81.57 31.233 82.0728 31.0625C82.5756 30.892 83.006 30.6364 83.364 30.2955C83.7219 29.9545 83.9947 29.5369 84.1822 29.0426L89.2191 29.375C88.9634 30.5852 88.4393 31.642 87.6467 32.5455C86.8626 33.4403 85.8484 34.1392 84.604 34.642C83.3683 35.1364 81.9407 35.3835 80.3214 35.3835ZM109.226 20.9631L104.24 21.2699C104.155 20.8437 103.972 20.4602 103.691 20.1193C103.409 19.7699 103.039 19.4929 102.578 19.2884C102.127 19.0753 101.586 18.9688 100.955 18.9688C100.111 18.9688 99.3995 19.1477 98.82 19.5057C98.2404 19.8551 97.9506 20.3239 97.9506 20.9119C97.9506 21.3807 98.1381 21.777 98.5131 22.1009C98.8881 22.4247 99.5316 22.6847 100.444 22.8807L103.998 23.5966C105.907 23.9886 107.33 24.6193 108.267 25.4886C109.205 26.358 109.674 27.5 109.674 28.9148C109.674 30.2017 109.294 31.331 108.536 32.3026C107.786 33.2741 106.755 34.0327 105.442 34.5781C104.138 35.1151 102.634 35.3835 100.929 35.3835C98.3299 35.3835 96.2589 34.8423 94.7163 33.7599C93.1822 32.669 92.283 31.1861 92.0188 29.3111L97.3754 29.0298C97.5373 29.8224 97.9293 30.4276 98.5515 30.8452C99.1737 31.2543 99.9705 31.4588 100.942 31.4588C101.897 31.4588 102.664 31.2756 103.243 30.9091C103.831 30.5341 104.13 30.0526 104.138 29.4645C104.13 28.9702 103.921 28.5653 103.512 28.25C103.103 27.9261 102.472 27.679 101.62 27.5085L98.2191 26.831C96.3015 26.4474 94.8739 25.7827 93.9364 24.8366C93.0075 23.8906 92.543 22.6847 92.543 21.2188C92.543 19.9574 92.8839 18.8707 93.5657 17.9588C94.256 17.0469 95.2234 16.3438 96.4677 15.8494C97.7205 15.3551 99.1864 15.108 100.865 15.108C103.346 15.108 105.297 15.6321 106.721 16.6804C108.152 17.7287 108.988 19.1562 109.226 20.9631ZM123.548 15.3636V19.4545H111.722V15.3636H123.548ZM114.407 10.6591H119.853V28.9659C119.853 29.4687 119.93 29.8608 120.083 30.142C120.237 30.4148 120.45 30.6065 120.722 30.7173C121.004 30.8281 121.327 30.8835 121.694 30.8835C121.95 30.8835 122.205 30.8622 122.461 30.8196C122.717 30.7685 122.913 30.7301 123.049 30.7045L123.906 34.7571C123.633 34.8423 123.249 34.9403 122.755 35.0511C122.261 35.1705 121.66 35.2429 120.952 35.2685C119.64 35.3196 118.489 35.1449 117.501 34.7443C116.521 34.3437 115.758 33.7216 115.212 32.8778C114.667 32.0341 114.398 30.9687 114.407 29.6818V10.6591ZM127.095 35V15.3636H132.541V35H127.095ZM129.831 12.8324C129.021 12.8324 128.327 12.5639 127.747 12.027C127.176 11.4815 126.891 10.8295 126.891 10.071C126.891 9.32102 127.176 8.67756 127.747 8.14062C128.327 7.59517 129.021 7.32244 129.831 7.32244C130.641 7.32244 131.331 7.59517 131.902 8.14062C132.482 8.67756 132.771 9.32102 132.771 10.071C132.771 10.8295 132.482 11.4815 131.902 12.027C131.331 12.5639 130.641 12.8324 129.831 12.8324ZM142.35 23.6477V35H136.904V15.3636H142.094V18.8281H142.324C142.759 17.6861 143.488 16.7827 144.51 16.1179C145.533 15.4446 146.773 15.108 148.23 15.108C149.594 15.108 150.783 15.4062 151.797 16.0028C152.811 16.5994 153.6 17.4517 154.162 18.5597C154.725 19.6591 155.006 20.9716 155.006 22.4972V35H149.56V23.4688C149.569 22.267 149.262 21.3295 148.64 20.6562C148.017 19.9744 147.161 19.6335 146.07 19.6335C145.337 19.6335 144.689 19.7912 144.127 20.1065C143.573 20.4219 143.138 20.8821 142.823 21.4872C142.516 22.0838 142.358 22.804 142.35 23.6477ZM168.145 42.7727C166.381 42.7727 164.868 42.5298 163.607 42.044C162.354 41.5668 161.357 40.9148 160.615 40.0881C159.874 39.2614 159.392 38.3324 159.17 37.3011L164.207 36.6236C164.361 37.0156 164.604 37.3821 164.936 37.723C165.268 38.0639 165.707 38.3366 166.253 38.5412C166.807 38.7543 167.48 38.8608 168.273 38.8608C169.457 38.8608 170.433 38.571 171.2 37.9915C171.976 37.4205 172.364 36.4616 172.364 35.1151V31.5227H172.134C171.895 32.0682 171.537 32.5838 171.06 33.0696C170.582 33.5554 169.969 33.9517 169.219 34.2585C168.469 34.5653 167.574 34.7188 166.534 34.7188C165.06 34.7188 163.717 34.3778 162.507 33.696C161.305 33.0057 160.347 31.9531 159.631 30.5384C158.923 29.1151 158.57 27.3168 158.57 25.1435C158.57 22.919 158.932 21.0611 159.656 19.5696C160.381 18.0781 161.344 16.9616 162.545 16.2202C163.756 15.4787 165.081 15.108 166.521 15.108C167.621 15.108 168.541 15.2955 169.283 15.6705C170.024 16.0369 170.621 16.4972 171.072 17.0511C171.533 17.5966 171.886 18.1335 172.134 18.6619H172.338V15.3636H177.746V35.1918C177.746 36.8622 177.337 38.2599 176.518 39.3849C175.7 40.5099 174.567 41.3537 173.118 41.9162C171.678 42.4872 170.02 42.7727 168.145 42.7727ZM168.26 30.6278C169.138 30.6278 169.879 30.4105 170.484 29.9759C171.098 29.5327 171.567 28.902 171.891 28.0838C172.223 27.2571 172.389 26.2685 172.389 25.1179C172.389 23.9673 172.227 22.9702 171.903 22.1264C171.58 21.2741 171.111 20.6136 170.497 20.1449C169.884 19.6761 169.138 19.4418 168.26 19.4418C167.365 19.4418 166.611 19.6847 165.997 20.1705C165.384 20.6477 164.919 21.3125 164.604 22.1648C164.288 23.017 164.131 24.0014 164.131 25.1179C164.131 26.2514 164.288 27.2315 164.604 28.0582C164.928 28.8764 165.392 29.5114 165.997 29.9631C166.611 30.4062 167.365 30.6278 168.26 30.6278ZM179.357 13.3821V8.81818H200.859V13.3821H192.844V35H187.372V13.3821H179.357ZM210.323 35.3835C208.337 35.3835 206.62 34.9616 205.171 34.1179C203.73 33.2656 202.618 32.081 201.834 30.5639C201.05 29.0384 200.658 27.2699 200.658 25.2585C200.658 23.2301 201.05 21.4574 201.834 19.9403C202.618 18.4148 203.73 17.2301 205.171 16.3864C206.62 15.5341 208.337 15.108 210.323 15.108C212.309 15.108 214.022 15.5341 215.462 16.3864C216.911 17.2301 218.027 18.4148 218.811 19.9403C219.596 21.4574 219.988 23.2301 219.988 25.2585C219.988 27.2699 219.596 29.0384 218.811 30.5639C218.027 32.081 216.911 33.2656 215.462 34.1179C214.022 34.9616 212.309 35.3835 210.323 35.3835ZM210.348 31.1648C211.252 31.1648 212.006 30.9091 212.611 30.3977C213.216 29.8778 213.672 29.1705 213.979 28.2756C214.294 27.3807 214.452 26.3622 214.452 25.2202C214.452 24.0781 214.294 23.0597 213.979 22.1648C213.672 21.2699 213.216 20.5625 212.611 20.0426C212.006 19.5227 211.252 19.2628 210.348 19.2628C209.436 19.2628 208.669 19.5227 208.047 20.0426C207.434 20.5625 206.969 21.2699 206.654 22.1648C206.347 23.0597 206.194 24.0781 206.194 25.2202C206.194 26.3622 206.347 27.3807 206.654 28.2756C206.969 29.1705 207.434 29.8778 208.047 30.3977C208.669 30.9091 209.436 31.1648 210.348 31.1648ZM232.401 35.3835C230.415 35.3835 228.698 34.9616 227.249 34.1179C225.809 33.2656 224.696 32.081 223.912 30.5639C223.128 29.0384 222.736 27.2699 222.736 25.2585C222.736 23.2301 223.128 21.4574 223.912 19.9403C224.696 18.4148 225.809 17.2301 227.249 16.3864C228.698 15.5341 230.415 15.108 232.401 15.108C234.387 15.108 236.1 15.5341 237.54 16.3864C238.989 17.2301 240.105 18.4148 240.89 19.9403C241.674 21.4574 242.066 23.2301 242.066 25.2585C242.066 27.2699 241.674 29.0384 240.89 30.5639C240.105 32.081 238.989 33.2656 237.54 34.1179C236.1 34.9616 234.387 35.3835 232.401 35.3835ZM232.426 31.1648C233.33 31.1648 234.084 30.9091 234.689 30.3977C235.294 29.8778 235.75 29.1705 236.057 28.2756C236.373 27.3807 236.53 26.3622 236.53 25.2202C236.53 24.0781 236.373 23.0597 236.057 22.1648C235.75 21.2699 235.294 20.5625 234.689 20.0426C234.084 19.5227 233.33 19.2628 232.426 19.2628C231.515 19.2628 230.748 19.5227 230.125 20.0426C229.512 20.5625 229.047 21.2699 228.732 22.1648C228.425 23.0597 228.272 24.0781 228.272 25.2202C228.272 26.3622 228.425 27.3807 228.732 28.2756C229.047 29.1705 229.512 29.8778 230.125 30.3977C230.748 30.9091 231.515 31.1648 232.426 31.1648ZM251.053 8.81818V35H245.607V8.81818H251.053Z" fill="#5D1BB3"/>
</svg>
