<svg width="28" height="28" viewBox="0 0 28 28" fill="none" xmlns="http://www.w3.org/2000/svg">
<path d="M17.8759 12.1172C17.9429 12.7737 17.9813 13.409 17.9813 14.0037C17.9813 15.1168 17.8468 16.3738 17.641 17.6446C16.3701 17.8504 15.1132 17.9849 14 17.9849C12.8919 17.9849 11.6354 17.8508 10.359 17.6443C10.1533 16.3734 10.0188 15.1167 10.0188 14.0037C10.0188 13.4093 10.0572 12.7738 10.1243 12.1172C11.4638 12.3316 12.8001 12.4724 14 12.4724C15.2001 12.4724 16.5364 12.3316 17.8759 12.1172Z" fill="#5D1BB3"/>
<path d="M19.6877 11.7775C19.7706 12.5457 19.8188 13.2937 19.8188 13.9948C19.8188 15.0179 19.7163 16.1402 19.5532 17.2793C21.8663 16.7967 24.0042 16.1801 25.1495 15.8291C25.5196 15.7157 25.665 15.6705 25.8601 15.5925C25.9576 15.5535 26.047 15.5138 26.1636 15.4582C26.2206 14.9783 26.25 14.49 26.25 13.9948C26.25 12.6858 26.0447 11.4248 25.6646 10.2422L25.5655 10.2733C24.3679 10.6377 22.1261 11.2817 19.6877 11.7775Z" fill="#5D1BB3"/>
<path d="M24.9688 8.53867C23.7649 8.90352 21.6756 9.49639 19.4367 9.95797C18.9209 6.82341 18.017 3.69703 17.582 2.28125C20.816 3.26859 23.482 5.55805 24.9688 8.53867Z" fill="#5D1BB3"/>
<path d="M17.6304 10.2927C16.3629 10.4974 15.1099 10.6312 14 10.6312C12.8902 10.6312 11.6373 10.4974 10.3699 10.2927C10.8555 7.32672 11.7225 4.2969 12.1658 2.85055C12.2792 2.4804 12.3244 2.33501 12.4024 2.13988C12.4414 2.04239 12.481 1.95298 12.5367 1.8365C13.0165 1.77938 13.5049 1.75 14 1.75C14.5173 1.75 15.0271 1.78206 15.5276 1.8443C15.5382 1.88491 15.548 1.92125 15.5577 1.95564C15.5864 2.05722 15.6313 2.19998 15.7066 2.43955L15.7146 2.46471C16.0925 3.66593 17.0939 7.01634 17.6304 10.2927Z" fill="#5D1BB3"/>
<path d="M8.56347 9.95795C9.07687 6.8372 9.97492 3.72767 10.409 2.3114L10.4182 2.28125C7.18415 3.26858 4.51824 5.55804 3.03149 8.53865C4.2353 8.90351 6.32453 9.49637 8.56347 9.95795Z" fill="#5D1BB3"/>
<path d="M2.33548 10.2422C1.95531 11.4248 1.75 12.6858 1.75 13.9948C1.75 14.5069 1.78142 15.0116 1.84243 15.5072L2.03549 15.5716L2.03703 15.572L2.03893 15.5727L2.04026 15.5731C2.10239 15.5937 3.92356 16.1952 6.32191 16.7919C6.99867 16.9603 7.71525 17.1266 8.44674 17.2791C8.28362 16.1401 8.18125 15.0179 8.18125 13.9948C8.18125 13.2934 8.22936 12.5455 8.31217 11.7775C5.87333 11.2816 3.63088 10.6373 2.43363 10.273L2.4253 10.2705L2.33548 10.2422Z" fill="#5D1BB3"/>
<path d="M14 19.8202C15.023 19.8202 16.1454 19.7178 17.2845 19.5547C16.8019 21.8677 16.1853 24.0056 15.8342 25.1508C15.7208 25.521 15.6757 25.6664 15.5976 25.8616C15.5587 25.9591 15.519 26.0485 15.4633 26.165C14.9835 26.2221 14.4951 26.2515 14 26.2515C13.5049 26.2515 13.0165 26.2221 12.5366 26.165C12.481 26.0485 12.4413 25.9591 12.4024 25.8616C12.3243 25.6665 12.2792 25.521 12.1658 25.151C11.8147 24.0058 11.1982 21.868 10.7156 19.5552C11.8509 19.7177 12.9734 19.8202 14 19.8202Z" fill="#5D1BB3"/>
<path d="M5.87827 18.5843C4.36164 18.2068 3.06993 17.8278 2.28198 17.5859C3.46803 21.4709 6.53314 24.536 10.4182 25.722L10.4089 25.6919C10.0299 24.4553 9.29715 21.9277 8.77558 19.2288C7.76127 19.0327 6.77511 18.8073 5.87827 18.5843Z" fill="#5D1BB3"/>
<path d="M25.688 17.5952C24.4514 17.9742 21.9235 18.707 19.2246 19.2285C18.7031 21.9275 17.9703 24.4552 17.5912 25.6919L17.582 25.722C21.467 24.536 24.5321 21.4709 25.7181 17.5859L25.688 17.5952Z" fill="#5D1BB3"/>
<path d="M1.87866 15.5469C1.92107 15.5524 1.95564 15.5582 1.96711 15.5608C1.97715 15.5632 1.99289 15.5674 1.9986 15.5689L2.01121 15.5725L2.018 15.5746L2.02514 15.5769L2.03112 15.5787C2.02776 15.5777 1.9597 15.5606 1.87866 15.5469Z" fill="#5D1BB3"/>
</svg>
